<?xml version="1.0" encoding="UTF-8"?>
<svg id="Layer_1" data-name="Layer 1" xmlns="http://www.w3.org/2000/svg" viewBox="0 0 1931.75 1079.75">
  <defs>
    <style>
      .cls-1 {
        fill: #ffd;
        stroke: #000;
        stroke-miterlimit: 10;
        stroke-width: .25px;
      }
    </style>
  </defs>
  <rect class="cls-1" x=".12" y=".12" width="1931.5" height="1079.5"/>
  <line class="cls-1" x1=".12" y1="1041.07" x2="1931.63" y2="1041.07"/>
  <line class="cls-1" x1=".12" y1="1002.52" x2="1931.63" y2="1002.52"/>
  <line class="cls-1" x1=".12" y1="963.96" x2="1931.63" y2="963.96"/>
  <line class="cls-1" x1=".12" y1="925.41" x2="1931.63" y2="925.41"/>
  <line class="cls-1" x1=".12" y1="886.86" x2="1931.63" y2="886.86"/>
  <line class="cls-1" x1=".12" y1="848.3" x2="1931.63" y2="848.3"/>
  <line class="cls-1" x1=".12" y1="809.75" x2="1931.63" y2="809.75"/>
  <line class="cls-1" x1=".12" y1="771.2" x2="1931.63" y2="771.2"/>
  <line class="cls-1" x1=".12" y1="732.64" x2="1931.63" y2="732.64"/>
  <line class="cls-1" x1=".12" y1="694.09" x2="1931.63" y2="694.09"/>
  <line class="cls-1" x1=".12" y1="655.54" x2="1931.63" y2="655.54"/>
  <line class="cls-1" x1=".12" y1="616.98" x2="1931.63" y2="616.98"/>
  <line class="cls-1" x1=".12" y1="578.43" x2="1931.63" y2="578.43"/>
  <line class="cls-1" x1=".12" y1="539.88" x2="1931.63" y2="539.88"/>
  <line class="cls-1" x1=".12" y1="501.32" x2="1931.63" y2="501.32"/>
  <line class="cls-1" x1=".12" y1="462.77" x2="1931.63" y2="462.77"/>
  <line class="cls-1" x1=".12" y1="424.21" x2="1931.63" y2="424.21"/>
  <line class="cls-1" x1=".12" y1="385.66" x2="1931.63" y2="385.66"/>
  <line class="cls-1" x1=".12" y1="347.11" x2="1931.63" y2="347.11"/>
  <line class="cls-1" x1=".12" y1="308.55" x2="1931.63" y2="308.55"/>
  <line class="cls-1" x1=".12" y1="270" x2="1931.63" y2="270"/>
  <line class="cls-1" x1=".12" y1="231.45" x2="1931.63" y2="231.45"/>
  <line class="cls-1" x1=".12" y1="192.89" x2="1931.63" y2="192.89"/>
  <line class="cls-1" x1=".12" y1="154.34" x2="1931.63" y2="154.34"/>
  <line class="cls-1" x1=".12" y1="115.79" x2="1931.63" y2="115.79"/>
  <line class="cls-1" x1=".12" y1="77.23" x2="1931.63" y2="77.23"/>
  <line class="cls-1" x1=".12" y1="38.68" x2="1931.63" y2="38.68"/>
  <line class="cls-1" x1="1887.73" y1=".12" x2="1887.73" y2="1079.63"/>
  <line class="cls-1" x1="1843.83" y1=".12" x2="1843.83" y2="1079.63"/>
  <line class="cls-1" x1="1799.93" y1=".12" x2="1799.93" y2="1079.63"/>
  <line class="cls-1" x1="1756.03" y1=".12" x2="1756.03" y2="1079.63"/>
  <line class="cls-1" x1="1712.14" y1=".12" x2="1712.14" y2="1079.63"/>
  <line class="cls-1" x1="1668.24" y1=".12" x2="1668.24" y2="1079.63"/>
  <line class="cls-1" x1="1624.34" y1=".12" x2="1624.34" y2="1079.63"/>
  <line class="cls-1" x1="1580.44" y1=".12" x2="1580.44" y2="1079.63"/>
  <line class="cls-1" x1="1536.55" y1=".12" x2="1536.55" y2="1079.63"/>
  <line class="cls-1" x1="1492.65" y1=".12" x2="1492.65" y2="1079.63"/>
  <line class="cls-1" x1="1448.75" y1=".12" x2="1448.75" y2="1079.63"/>
  <line class="cls-1" x1="1404.85" y1=".12" x2="1404.85" y2="1079.63"/>
  <line class="cls-1" x1="1360.95" y1=".12" x2="1360.95" y2="1079.63"/>
  <line class="cls-1" x1="1317.06" y1=".12" x2="1317.06" y2="1079.63"/>
  <line class="cls-1" x1="1273.16" y1=".12" x2="1273.16" y2="1079.63"/>
  <line class="cls-1" x1="1229.26" y1=".12" x2="1229.26" y2="1079.63"/>
  <line class="cls-1" x1="1185.36" y1=".12" x2="1185.36" y2="1079.63"/>
  <line class="cls-1" x1="1141.47" y1=".12" x2="1141.47" y2="1079.63"/>
  <line class="cls-1" x1="1097.57" y1=".12" x2="1097.57" y2="1079.63"/>
  <line class="cls-1" x1="1053.67" y1=".12" x2="1053.67" y2="1079.63"/>
  <line class="cls-1" x1="1009.77" y1=".12" x2="1009.77" y2="1079.63"/>
  <line class="cls-1" x1="965.88" y1=".12" x2="965.88" y2="1079.63"/>
  <line class="cls-1" x1="921.98" y1=".12" x2="921.98" y2="1079.63"/>
  <line class="cls-1" x1="878.08" y1=".12" x2="878.08" y2="1079.63"/>
  <line class="cls-1" x1="834.18" y1=".12" x2="834.18" y2="1079.63"/>
  <line class="cls-1" x1="790.28" y1=".12" x2="790.28" y2="1079.63"/>
  <line class="cls-1" x1="746.39" y1=".12" x2="746.39" y2="1079.63"/>
  <line class="cls-1" x1="702.49" y1=".12" x2="702.49" y2="1079.63"/>
  <line class="cls-1" x1="658.59" y1=".12" x2="658.59" y2="1079.63"/>
  <line class="cls-1" x1="614.69" y1=".12" x2="614.69" y2="1079.63"/>
  <line class="cls-1" x1="570.8" y1=".12" x2="570.8" y2="1079.63"/>
  <line class="cls-1" x1="526.9" y1=".12" x2="526.9" y2="1079.63"/>
  <line class="cls-1" x1="483" y1=".12" x2="483" y2="1079.63"/>
  <line class="cls-1" x1="439.1" y1=".12" x2="439.1" y2="1079.63"/>
  <line class="cls-1" x1="395.2" y1=".12" x2="395.2" y2="1079.63"/>
  <line class="cls-1" x1="351.31" y1=".12" x2="351.31" y2="1079.63"/>
  <line class="cls-1" x1="307.41" y1=".12" x2="307.41" y2="1079.63"/>
  <line class="cls-1" x1="263.51" y1=".12" x2="263.51" y2="1079.63"/>
  <line class="cls-1" x1="219.61" y1=".12" x2="219.61" y2="1079.63"/>
  <line class="cls-1" x1="175.72" y1=".12" x2="175.72" y2="1079.63"/>
  <line class="cls-1" x1="131.82" y1=".12" x2="131.82" y2="1079.63"/>
  <line class="cls-1" x1="87.92" y1=".12" x2="87.92" y2="1079.63"/>
  <line class="cls-1" x1="44.02" y1=".12" x2="44.02" y2="1079.63"/>
</svg>